<svg xmlns="http://www.w3.org/2000/svg" viewBox="0 0 4294.3 1567.5" role="img" aria-label="F TRANS">
  <g fill="#1b8a3e" transform="translate(20,30)">
    <path d="M189.0 1143.0C253.35 1143.0 313.2 1140.75 338.85 1131.3C364.5 1121.85 374.40000000000003 1106.55 374.40000000000003 1082.25C374.40000000000003 1062.9 365.85 1051.65 355.05 1045.8C342.90000000000003 1038.6 325.35 1040.85 313.2 1031.85C301.5 1023.3 292.5 1008.9 292.5 977.4V928.8C292.5 908.55 293.40000000000003 895.95 293.40000000000003 877.95C293.40000000000003 867.15 297.0 859.95 310.5 859.95C319.95 859.95 324.45 860.4 334.35 861.3C342.45 862.2 347.40000000000003 863.55 351.90000000000003 866.25C358.65000000000003 870.3 364.05 875.7 367.2 886.05C370.8 897.3 367.65000000000003 921.15 369.90000000000003 931.95C373.95 951.3 388.8 963.45 412.2 963.45C459.0 963.45 470.25 886.5 470.25 807.3C470.25 733.5 451.8 664.65 414.0 664.65C389.25 664.65 379.8 678.5999999999999 375.75 688.5C372.6 696.15 373.5 709.65 370.8 720.9C367.2 735.75 352.8 748.8 335.7 748.8C326.25 748.8 319.05 747.9 307.8 746.0999999999999C290.7 743.4 290.7 737.55 290.7 716.4C290.7 702.9 292.05 684.9 292.5 675.9C292.95 663.3 294.3 652.95 297.0 628.2C299.7 601.65 310.95 595.8 340.2 595.8C368.1 595.8 400.95 598.9499999999999 428.40000000000003 605.6999999999999C458.1 612.9 477.90000000000003 629.55 494.55 651.15C509.85 670.95 521.1 689.4 548.1 689.4C578.25 689.4 594.45 666.0 594.45 628.2C594.45 560.6999999999999 557.5500000000001 479.69999999999993 521.1 479.69999999999993C499.95 479.69999999999993 476.55 488.25 434.7 488.25C381.15000000000003 488.25 273.6 489.15 218.70000000000002 489.15C172.8 489.15 112.05 486.44999999999993 81.45 486.44999999999993C46.800000000000004 486.44999999999993 15.75 505.35 15.75 538.65C15.75 559.35 22.95 567.0 28.35 571.9499999999999C35.1 578.25 53.550000000000004 581.85 61.2 586.8C73.35000000000001 594.9 82.8 616.05 82.8 733.5V859.5C82.8 922.05 80.10000000000001 984.6 75.60000000000001 1004.4C72.9 1017.45 69.75 1025.1 61.2 1031.4C50.4 1039.05 36.45 1040.85 27.900000000000002 1047.6C20.25 1053.45 12.15 1060.2 12.15 1080.45C12.15 1098.9 21.150000000000002 1114.2 36.45 1122.3C70.2 1140.75 139.95000000000002 1143.0 189.0 1143.0Z"/>
    <path d="M999.45 841.05C999.45 919.35 995.85 953.1 989.55 980.55C986.85 992.25 984.15 1005.3 976.5 1012.5C963.45 1024.65 941.4 1024.65 929.25 1037.25C921.6 1045.35 915.75 1054.8 915.75 1069.2C915.75 1082.25 919.35 1100.7 947.25 1117.35C976.95 1135.35 1017.45 1140.75 1101.15 1140.75C1172.7 1140.75 1217.7 1134.45 1245.6 1123.2C1273.95 1111.95 1291.95 1094.4 1291.95 1067.85C1291.95 1042.65 1285.2 1034.1 1275.75 1027.8C1264.5 1020.15 1246.95 1018.35 1234.8 1009.8C1224.9 1002.6 1218.15 992.7 1215.9 967.5C1213.65 943.65 1210.05 918.9 1210.05 848.7V731.7C1210.05 668.7 1214.55 630.0 1223.1 623.7C1229.4 619.2 1237.95 619.65 1246.95 628.65C1269.0 650.7 1272.15 672.75 1291.05 697.05C1305.45 715.5 1323.9 722.25 1345.95 722.25C1381.05 722.25 1418.4 708.3 1418.4 638.55C1418.4 548.55 1348.65 472.5 1311.3 472.5C1281.15 472.5 1276.2 486.0 1220.85 486.0H976.95C926.1 486.0 925.2 477.44999999999993 899.55 477.44999999999993C862.1999999999999 477.44999999999993 795.15 575.1 795.15 660.5999999999999C795.15 698.8499999999999 813.6 732.15 853.1999999999999 732.15C875.25 732.15 891.9 728.0999999999999 907.1999999999999 709.65C928.35 684.0 942.3 663.3 959.4 636.3C968.4 621.9 980.55 621.0 989.1 631.8C998.55 643.05 999.45 679.95 999.45 737.55Z"/>
    <path d="M1714.0500000000002 888.3C1714.0500000000002 877.05 1717.2 872.55 1721.25 870.75C1726.2 868.5 1732.5 868.05 1741.95 868.05C1756.3500000000001 868.05 1773.9 868.5 1790.5500000000002 901.35C1822.0500000000002 963.45 1823.8500000000001 1053.9 1863.45 1106.1C1885.95 1136.25 1935.0 1152.45 1998.0 1152.45C2083.5 1152.45 2138.4 1120.95 2138.4 1077.75C2138.4 1063.8 2134.3500000000004 1057.05 2123.55 1051.65C2116.3500000000004 1048.05 2106.4500000000003 1047.6 2091.6000000000004 1038.6C2063.25 1021.05 2076.75 963.0 2043.0 888.75C2022.75 843.75 1984.5 828.0 1957.0500000000002 820.3499999999999C1949.4 818.0999999999999 1939.5 811.3499999999999 1939.5 803.7C1939.5 795.5999999999999 1949.4 789.3 1957.5 785.7C2007.4500000000003 764.55 2034.0 715.95 2034.0 645.3C2034.0 550.8 1948.9500000000003 483.29999999999995 1833.3000000000002 483.29999999999995C1766.25 483.29999999999995 1742.4 487.35 1674.0 487.35C1628.1000000000001 487.35 1557.9 483.75 1513.8000000000002 483.75C1456.65 483.75 1430.5500000000002 511.19999999999993 1430.5500000000002 540.4499999999999C1430.5500000000002 554.85 1434.6000000000001 563.85 1441.3500000000001 569.25C1451.7 577.35 1471.5 577.35 1482.3000000000002 591.75C1497.6000000000001 612.0 1500.3000000000002 652.95 1500.3000000000002 724.5V850.05C1500.3000000000002 939.6 1494.45 998.1 1483.2 1023.75C1473.75 1046.25 1456.65 1044.45 1447.65 1051.2C1439.1000000000001 1057.5 1434.15 1065.15 1434.15 1085.85C1434.15 1106.1 1443.6000000000001 1122.75 1469.25 1131.3C1495.8000000000002 1140.75 1539.9 1141.65 1608.75 1141.65C1666.3500000000001 1141.65 1705.95 1138.5 1732.0500000000002 1131.75C1763.5500000000002 1123.65 1777.5 1106.1 1777.5 1087.65C1777.5 1068.75 1771.2 1062.9 1763.1000000000001 1056.6C1751.4 1046.7 1737.0 1044.9 1726.2 1027.35C1717.2 1012.5 1714.0500000000002 976.95 1714.0500000000002 938.7ZM1742.8500000000001 765.0C1721.25 765.0 1711.8000000000002 765.0 1710.45 752.4C1709.5500000000002 741.15 1709.1000000000001 726.3 1709.1000000000001 702.9V669.15C1709.1000000000001 635.4 1712.25 608.4 1715.8500000000001 598.05C1719.9 586.35 1731.6000000000001 586.35 1742.8500000000001 586.35C1784.25 586.35 1803.15 620.0999999999999 1803.15 669.5999999999999C1803.15 728.0999999999999 1790.5500000000002 765.0 1742.8500000000001 765.0Z"/>
    <path d="M2369.7000000000003 1002.15C2374.65 988.65 2382.3 981.9 2412.0 981.9C2434.9500000000003 981.9 2454.75 979.65 2485.8 979.65C2521.35 979.65 2558.25 981.45 2574.0 985.5C2590.2000000000003 989.55 2593.35 999.0 2594.7000000000003 1003.5L2595.15 1005.3C2595.6 1007.55 2595.6 1009.35 2595.6 1011.15C2595.6 1015.2 2593.35 1022.85 2583.9 1027.35C2574.0 1032.3 2564.1 1032.3 2554.65 1038.15C2546.55 1043.1 2540.25 1056.15 2540.25 1079.1C2540.25 1098.0 2552.4 1115.1 2576.25 1124.1C2605.5 1134.9 2653.65 1135.35 2725.65 1135.35C2794.05 1135.35 2839.5 1134.45 2867.8500000000004 1125.9C2911.05 1112.85 2916.4500000000003 1088.1 2916.4500000000003 1070.55C2916.4500000000003 1048.5 2912.8500000000004 1039.95 2903.8500000000004 1033.65C2889.4500000000003 1023.3 2874.6000000000004 1027.8 2860.2000000000003 1015.2C2849.8500000000004 1006.65 2842.65 987.3 2832.3 963.9C2769.3 823.05 2719.8 727.2 2646.9 577.8C2610.9 504.0 2554.65 465.29999999999995 2496.6 465.29999999999995C2426.85 465.29999999999995 2390.4 519.75 2390.4 574.1999999999999C2390.4 604.8 2388.15 648.0 2355.3 726.3L2272.9500000000003 912.6C2248.2000000000003 968.4 2229.3 999.9 2212.65 1017.45C2197.35 1034.1 2175.3 1032.3 2162.7000000000003 1040.4C2153.25 1046.25 2145.15 1057.05 2145.15 1075.95C2145.15 1133.55 2200.05 1138.05 2286.0 1138.05C2372.85 1138.05 2427.75 1127.7 2427.75 1075.05C2427.75 1060.2 2423.25 1049.85 2415.6 1044.45C2406.6 1038.6 2385.9 1034.55 2375.1 1030.05C2369.25 1027.35 2366.55 1023.3 2366.55 1017.0C2366.55 1013.85 2366.55 1010.25 2368.35 1005.75ZM2482.2000000000003 848.7C2452.05 848.7 2443.9500000000003 849.15 2438.55 849.15C2432.7000000000003 849.15 2428.2000000000003 847.3499999999999 2428.2000000000003 841.05C2428.2000000000003 834.3 2433.6 822.15 2438.55 810.9L2460.6 760.5C2469.6 740.7 2471.4 735.75 2479.5 735.75C2487.15 735.75 2492.55 742.5 2501.1 757.8L2539.8 825.75C2543.4 832.5 2549.25 843.75 2549.25 847.8C2549.25 850.5 2548.8 852.3 2545.2000000000003 852.3C2537.55 852.3 2512.35 848.7 2482.2000000000003 848.7Z"/>
    <path d="M3013.2000000000003 877.05C3013.2000000000003 931.05 3008.7000000000003 983.7 2997.4500000000003 1006.2C2987.1000000000004 1028.25 2972.7000000000003 1031.4 2961.4500000000003 1039.95C2952.0000000000005 1047.15 2945.2500000000005 1059.3 2945.2500000000005 1078.2C2945.2500000000005 1125.45 3006.4500000000003 1136.25 3079.8 1136.25C3154.5000000000005 1136.25 3209.8500000000004 1112.85 3209.8500000000004 1068.75C3209.8500000000004 1050.75 3199.9500000000003 1036.8 3185.1000000000004 1032.3C3172.5000000000005 1028.7 3161.2500000000005 1020.15 3156.3 1009.8C3149.55 995.85 3143.2500000000005 955.35 3143.2500000000005 934.2V913.05C3143.2500000000005 834.3 3158.1000000000004 829.3499999999999 3168.9 829.3499999999999C3178.8 829.3499999999999 3196.8 839.7 3214.8 856.3499999999999L3489.7500000000005 1106.1C3501.9000000000005 1117.35 3523.9500000000003 1131.3 3540.1500000000005 1131.3C3572.55 1131.3 3595.9500000000003 1100.25 3595.9500000000003 927.45V756.45C3595.9500000000003 684.45 3603.6000000000004 617.8499999999999 3612.6000000000004 598.5C3620.7000000000003 580.5 3642.7500000000005 578.25 3655.3500000000004 567.9C3664.8 560.25 3669.3 549.0 3669.3 531.9C3669.3 491.85 3631.9500000000003 476.1 3531.6000000000004 476.1C3429.9000000000005 476.1 3409.65 494.1 3409.65 538.1999999999999C3409.65 552.15 3415.05 562.5 3420.4500000000003 567.9C3431.2500000000005 578.6999999999999 3445.2000000000003 572.4 3457.3500000000004 586.8C3465.9000000000005 597.15 3476.2500000000005 618.3 3476.2500000000005 649.8V667.8C3476.2500000000005 715.5 3469.9500000000003 741.15 3455.1000000000004 741.15C3441.1500000000005 741.15 3426.3 732.15 3414.15 720.9L3186.0000000000005 513.4499999999999C3164.8500000000004 494.54999999999995 3158.1000000000004 479.69999999999993 3115.3500000000004 479.69999999999993C3033.9 479.69999999999993 2978.1000000000004 485.1 2959.2000000000003 496.35C2943.0000000000005 506.25 2928.6000000000004 525.6 2928.6000000000004 545.4C2928.6000000000004 559.8 2932.65 565.1999999999999 2941.2000000000003 573.3C2951.1000000000004 582.75 2969.55 586.35 2979.9 595.8C2988.9 603.9 2990.7000000000003 611.1 2993.8500000000004 622.3499999999999C3001.9500000000003 652.05 3013.2000000000003 700.65 3013.2000000000003 815.4Z"/>
    <path d="M3807.9 940.05C3797.1000000000004 920.7 3774.15 884.25 3739.9500000000003 884.25C3714.3 884.25 3699.4500000000003 903.15 3699.4500000000003 936.45C3699.4500000000003 992.7 3724.65 1064.25 3739.9500000000003 1079.55C3775.9500000000003 1115.1 3854.2500000000005 1140.75 3948.3 1140.75C4105.35 1140.75 4236.3 1039.05 4236.3 896.4C4236.3 775.3499999999999 4147.200000000001 729.0 4041.0000000000005 701.0999999999999C3986.1000000000004 686.7 3938.4 679.05 3938.4 643.95C3938.4 621.45 3958.65 607.05 3988.8 607.05C4024.3500000000004 607.05 4050.0000000000005 622.8 4071.15 642.15C4082.8500000000004 652.95 4093.65 664.2 4104.900000000001 673.65C4119.75 686.7 4135.5 693.45 4155.75 693.45C4185.0 693.45 4214.700000000001 665.55 4214.700000000001 628.2C4214.700000000001 566.55 4154.85 477.0 4107.6 477.0C4087.8 477.0 4074.7500000000005 490.94999999999993 4058.1000000000004 490.94999999999993C4041.0000000000005 490.94999999999993 4031.1000000000004 477.44999999999993 3957.3 477.44999999999993C3827.7000000000003 477.44999999999993 3703.5000000000005 552.15 3703.5000000000005 691.65C3703.5000000000005 815.4 3789.0000000000005 881.55 3907.8 916.2C3985.2000000000003 938.7 3998.7000000000003 949.05 3998.7000000000003 974.25C3998.7000000000003 997.2 3974.8500000000004 1009.35 3929.8500000000004 1009.35C3889.8 1009.35 3834.9 989.55 3807.9 940.05Z"/>
  </g>
</svg>
